# xmcd
#
# Track frame offsets: 
#        150
#        21267
#        33374
#        60958
#        102210
#        121477
#        178904
#        215636
#
# Disc length: 4020 seconds
#
# Revision: 0
# Processed by: cddbd v1.5.2PL0 Copyright (c) Steve Scherf et al.
# Submitted via: ExactAudioCopy v0.95b3
#
DISCID=6b0fb208
DTITLE=Jimi Hendrix  - Mixdown Master Tapes - Disc 1  FLAC
DYEAR=1900
DGENRE=
TTITLE0=The Stars That Play With Laughing Sam's Dice
TTITLE1=Can You Please Crawl Out Your Window?
TTITLE2=Calling All Devil's Children
TTITLE3=Hear My Freedom
TTITLE4=Star Spangled Banner
TTITLE5=Machine Gun
TTITLE6=Freedom Jam
TTITLE7=Message From Nine To The Universe
EXTD=
EXTT0=
EXTT1=
EXTT2=
EXTT3=
EXTT4=
EXTT5=
EXTT6=
EXTT7=
PLAYORDER=
